<?xml version="1.0" encoding="utf-8"?>
<!-- Generator: Adobe Illustrator 18.1.0, SVG Export Plug-In . SVG Version: 6.00 Build 0)  -->
<!DOCTYPE svg PUBLIC "-//W3C//DTD SVG 1.1//EN" "http://www.w3.org/Graphics/SVG/1.1/DTD/svg11.dtd">
<svg version="1.1" id="Layer_1" xmlns="http://www.w3.org/2000/svg" xmlns:xlink="http://www.w3.org/1999/xlink" x="0px" y="0px"
	 viewBox="0 0 287.6 287.6" enable-background="new 0 0 287.6 287.6" xml:space="preserve">
<g>
	<circle fill="#808285" cx="143.8" cy="143.8" r="143.8"/>
	<g opacity="0">
		<g>
			<g>
				<path fill="none" stroke="#A7A9AC" stroke-width="2" stroke-linecap="round" stroke-linejoin="round" d="M144.6,42.4
					c0,0,0.5-0.3,0.5-0.3c0.1,0.2-5.8,9.8-5.6,10.1c0.1,0.2,5.1-3.2,5.2-3c0.3,0.4-11.1,13.2-10.9,13.7c0.2,0.3,19.2-11.6,19.4-11.2
					c0.3,0.6-18.9,17.2-18.6,17.7c0.2,0.4,20.1-12.3,20.4-11.8c0.4,0.7-26.9,21.6-26.5,22.3c0.4,0.7,21.5-13.3,21.9-12.6
					c0.4,0.7-22.3,18.8-21.9,19.4c0.6,1,27.9-17.1,28.3-16.4c0.5,0.8-31.3,23.4-30.7,24.4c0.6,1,27.5-16.9,27.9-16.1
					c0.6,1-39.1,27.8-38.6,28.7c0.6,1,47.1-28.5,47.7-27.5c0.8,1.4-54.5,36.6-53.6,38.1c0.8,1.4,51.1-31.3,51.9-29.9
					c0.7,1.2-49.2,34-48.6,35.1c0.7,1.2,51.2-31.1,51.9-30c1,1.7-58,38.2-57.1,39.8c1,1.7,64.8-39.7,65.8-38
					c1.1,1.9-75.6,47.6-74.5,49.6c1.1,1.8,67.8-41.6,68.9-39.8c1,1.8-74.1,47-73,49c0.9,1.6,76.3-46.4,77.3-44.6
					c1.2,2-76.6,49.2-75.7,50.8c1,1.8,79.8-49.2,81.1-46.8c1.4,2.5-88.7,55.1-87.7,57c1.5,2.6,90.9-55,92-53.1
					c1.4,2.5-92.1,57.5-91,59.5c1.2,2.1,89.6-54.2,90.7-52.3c1.6,2.8-102.4,62.1-100.8,64.9c1.5,2.6,100.8-61,102-58.9
					c1.6,2.7-106.5,64.8-104.8,67.8c1.6,2.8,110-66.6,111.3-64.3c1.8,3.2-111.8,66.8-110,70.1c1.7,2.9,101.8-62.7,103.5-59.8
					c2,3.4-113.9,68.1-112.1,71.2c1.8,3.2,121.6-74.9,123.6-71.4c1.9,3.2-127.1,76-125.3,79.2c2,3.5,120.7-74.2,122.6-70.8
					c2.1,3.6-133.8,80.5-132.1,83.6c1.7,2.9,134.7-81.3,136.3-78.7c1.9,3.2-137,81.5-134.9,85.1c2,3.4,129.8-79.6,131.8-76.1
					c1.9,3.4-122.8,74.6-121.2,77.3c1.7,3,122-74.6,123.8-71.5c1.8,3.1-111.1,68.3-109.7,70.8c1.3,2.3,111.9-68.7,113.7-65.6
					c1.4,2.5-102.8,62.1-101.2,64.9c1.5,2.5,103.5-63.2,105-60.6c1.6,2.8-94.8,57.8-93.4,60.3c1.5,2.6,91.5-56,92.9-53.6
					c1.3,2.3-81.3,51.5-80.4,53.2c1.5,2.6,79.7-49.3,81.1-46.8c1.1,1.8-69.8,45.1-68.8,46.9c0.9,1.6,78.2-47.9,79.4-45.8
					c1.1,1.9-70.4,45.5-69.4,47.3c1.2,2,71.8-43.9,72.9-42.1c1.1,1.9-61,40.6-60.2,42c0.8,1.5,53-32.7,53.9-31.1
					c0.7,1.1-45,30.9-44.4,32c0.8,1.4,46.8-28.9,47.6-27.5c0.6,1.1-38.2,27.8-37.7,28.8c0.5,0.9,38.3-23.6,38.9-22.5
					c0.4,0.7-22.8,19.1-22.4,19.8c0.5,0.8,28.1-17.4,28.7-16.5c0.3,0.5-14.3,15-14,15.5c0.2,0.4,16.4-10.1,16.7-9.7
					c0.1,0.3-6.8,10.6-6.6,10.8c0.1,0.2,5.4-3.4,5.6-3.2"/>
			</g>
		</g>
		<polygon fill="#A7A9AC" points="144.9,17.3 148.7,25.3 157.1,26.6 151,32.8 152.5,41.6 144.9,37.4 137.4,41.6 138.8,32.8 
			132.8,26.6 141.2,25.3 		"/>
	</g>
</g>
</svg>
