<?xml version="1.0" encoding="utf-8"?>
<!-- Generator: Adobe Illustrator 18.1.0, SVG Export Plug-In . SVG Version: 6.00 Build 0)  -->
<!DOCTYPE svg PUBLIC "-//W3C//DTD SVG 1.1//EN" "http://www.w3.org/Graphics/SVG/1.1/DTD/svg11.dtd">
<svg version="1.1" id="Layer_1" xmlns="http://www.w3.org/2000/svg" xmlns:xlink="http://www.w3.org/1999/xlink" x="0px" y="0px"
	 viewBox="0 0 500 500" enable-background="new 0 0 500 500" xml:space="preserve">
<g>
	<g>
		<path fill="none" stroke="#EB5959" stroke-width="3" stroke-linecap="round" stroke-linejoin="round" d="M251.4,73.7l0.9-0.5
			c0.2,0.3-10.1,17-9.7,17.6c0.2,0.3,8.9-5.6,9-5.2c0.5,0.7-19.3,22.9-18.9,23.8c0.3,0.5,33.4-20.2,33.7-19.5
			c0.5,1-32.9,29.9-32.3,30.8c0.3,0.7,34.9-21.4,35.5-20.5c0.7,1.2-46.8,37.6-46.1,38.8c0.7,1.2,37.4-23.1,38.1-21.9
			c0.7,1.2-38.8,32.7-38.1,33.7c1,1.7,48.5-29.7,49.2-28.5c0.9,1.4-54.4,40.7-53.4,42.4c1,1.7,47.8-29.4,48.5-28
			c1,1.7-68,48.3-67.1,49.9c1,1.7,81.9-49.5,82.9-47.8c1.4,2.4-94.7,63.6-93.2,66.2c1.4,2.4,88.8-54.4,90.2-52
			c1.2,2.1-85.5,59.1-84.5,61c1.2,2.1,89-54.1,90.2-52.2c1.7,3-100.8,66.4-99.3,69.2c1.7,3,112.7-69,114.4-66.1
			c1.9,3.3-131.4,82.8-129.5,86.2c1.9,3.1,117.9-72.3,119.8-69.2c1.7,3.1-128.8,81.7-126.9,85.2c1.6,2.8,132.6-80.7,134.4-77.5
			c2.1,3.5-133.2,85.5-131.6,88.3c1.7,3.1,138.7-85.5,141-81.4c2.4,4.3-154.2,95.8-152.5,99.1c2.6,4.5,158-95.6,159.9-92.3
			c2.4,4.3-160.1,100-158.2,103.4c2.1,3.7,155.8-94.2,157.7-90.9c2.8,4.9-178,108-175.2,112.8c2.6,4.5,175.2-106.1,177.3-102.4
			c2.8,4.7-185.2,112.7-182.2,117.9c2.8,4.9,191.2-115.8,193.5-111.8c3.1,5.6-194.4,116.1-191.2,121.9c3,5,177-109,179.9-104
			c3.5,5.9-198,118.4-194.9,123.8c3.1,5.6,211.4-130.2,214.9-124.1c3.3,5.6-221,132.1-217.8,137.7c3.5,6.1,209.8-129,213.1-123.1
			c3.7,6.3-232.6,140-229.7,145.3c3,5,234.2-141.3,237-136.8c3.3,5.6-238.2,141.7-234.5,147.9c3.5,5.9,225.7-138.4,229.1-132.3
			c3.3,5.9-213.5,129.7-210.7,134.4c3,5.2,212.1-129.7,215.2-124.3c3.1,5.4-193.2,118.7-190.7,123.1c2.3,4,194.5-119.4,197.7-114
			c2.4,4.3-178.7,108-175.9,112.8c2.6,4.3,179.9-109.9,182.5-105.4c2.8,4.9-164.8,100.5-162.4,104.8c2.6,4.5,159.1-97.4,161.5-93.2
			c2.3,4-141.3,89.5-139.8,92.5c2.6,4.5,138.6-85.7,141-81.4c1.9,3.1-121.3,78.4-119.6,81.5c1.6,2.8,136-83.3,138-79.6
			c1.9,3.3-122.4,79.1-120.7,82.2c2.1,3.5,124.8-76.3,126.7-73.2c1.9,3.3-106.1,70.6-104.7,73c1.4,2.6,92.1-56.8,93.7-54.1
			c1.2,1.9-78.2,53.7-77.2,55.6c1.4,2.4,81.4-50.2,82.8-47.8c1,1.9-66.4,48.3-65.5,50.1c0.9,1.6,66.6-41,67.6-39.1
			c0.7,1.2-39.6,33.2-38.9,34.4c0.9,1.4,48.9-30.3,49.9-28.7c0.5,0.9-24.9,26.1-24.3,26.9c0.3,0.7,28.5-17.6,29-16.9
			c0.2,0.5-11.8,18.4-11.5,18.8c0.2,0.3,9.4-5.9,9.7-5.6"/>
	</g>
</g>
<polygon fill="#EB5959" points="251.9,30.1 258.5,44 273.1,46.2 262.5,57 265.1,72.3 251.9,65 238.9,72.3 241.3,57 230.9,46.2 
	245.5,44 "/>
</svg>
